<svg width="200" height="200" viewBox="0 0 200 200" fill="none" xmlns="http://www.w3.org/2000/svg">
<g clip-path="url(#clip0_1306_14709)">
<rect width="200" height="200" fill="#D3D3D3"/>
<rect width="200" height="200" fill="#D9D9D9"/>
<path d="M142.743 83.0179V122.98H122.537V135H174.807V122.98H155.104V65H143.87L112.352 96.5187L120.822 104.95C120.855 104.95 142.743 83.0179 142.743 83.0179Z" fill="white"/>
<path fill-rule="evenodd" clip-rule="evenodd" d="M63 75C71.2843 75 78 81.7157 78 90V110C78 116.531 73.826 122.087 68 124.146V100H58V124.146C52.1741 122.087 48 116.531 48 110V90C48 81.7157 54.7158 75 63 75ZM43.124 74.834C47.6921 68.8563 54.8957 65 63 65C71.1043 65 78.3079 68.8563 82.8761 74.834L93.5526 68.6699L98.5526 77.3301L87.2407 83.861C87.7366 85.8252 88 87.8818 88 90V95H102V105H88V110C88 112.118 87.7366 114.175 87.2407 116.139L98.5526 122.67L93.5526 131.33L82.8761 125.166C78.3079 131.144 71.1043 135 63 135C54.8957 135 47.6921 131.144 43.124 125.166L32.4474 131.33L27.4474 122.67L38.7593 116.139C38.2635 114.175 38 112.118 38 110V105H24V95H38V90C38 87.8818 38.2635 85.8252 38.7593 83.8611L27.4474 77.3301L32.4474 68.6699L43.124 74.834Z" fill="black"/>
</g>
<defs>
<clipPath id="clip0_1306_14709">
<rect width="200" height="200" fill="white"/>
</clipPath>
</defs>
</svg>
